<svg width="16" height="16" viewBox="0 0 16 16" fill="none" xmlns="http://www.w3.org/2000/svg">
<path d="M8 9.5C9.06026 9.5 10.104 9.62415 11.1318 9.87305C12.1576 10.1215 13.1708 10.4942 14.1699 10.9932V10.9941C14.5704 11.2013 14.8915 11.5 15.1367 11.8994C15.3791 12.2942 15.5 12.7244 15.5 13.2002V15.5H0.5V13.2002C0.5 12.7244 0.620925 12.2942 0.863281 11.8994C1.10852 11.5 1.4287 11.2003 1.8291 10.9932C2.82852 10.494 3.84208 10.1216 4.86816 9.87305C5.89603 9.62415 6.93974 9.5 8 9.5ZM8 0.5C8.96634 0.5 9.78137 0.838007 10.4717 1.52832C11.162 2.21863 11.5 3.03366 11.5 4C11.5 4.96634 11.162 5.78137 10.4717 6.47168C9.78137 7.16199 8.96634 7.5 8 7.5C7.03366 7.5 6.21863 7.16199 5.52832 6.47168C4.83801 5.78137 4.5 4.96634 4.5 4C4.5 3.03366 4.83801 2.21863 5.52832 1.52832C6.21863 0.838007 7.03366 0.5 8 0.5Z" stroke="black"/>
</svg>
